<?xml version="1.0" encoding="utf-8"?>
<svg xmlns="http://www.w3.org/2000/svg" viewBox="0 0 2039.55 243.26">
  <defs>
    <style>
                      .cls-1 {
                        fill: #fff;
                      }
                    </style>
  </defs>
  <g id="Layer_2" data-name="Layer 2">
    <g id="Text_outlines" data-name="Text outlines">
      <path class="cls-1" d="M 266.22 243.26 L 21.87 243.26 C 9.621 243.162 -0.2 233.098 0 220.85 L 0 22.41 C -0.2 10.162 9.621 0.098 21.87 0 L 266.77 0 L 332.92 121.34 Z M 85.978 177.448 L 85.978 103.367 L 131.775 177.448 L 154.79 177.448 L 154.79 63.847 L 133.48 63.847 L 133.48 139.71 L 86.986 63.847 L 64.669 63.847 L 64.669 177.448 Z M 201.966 177.448 L 201.966 134.596 L 216.922 134.596 C 227.305 134.596 235.235 134.054 240.711 132.969 C 244.741 132.09 248.706 130.295 252.606 127.583 C 256.507 124.871 259.723 121.139 262.254 116.386 C 264.785 111.633 266.051 105.77 266.051 98.795 C 266.051 89.755 263.855 82.381 259.464 76.672 C 255.073 70.963 249.623 67.257 243.114 65.552 C 238.877 64.415 229.785 63.847 215.837 63.847 L 179.029 63.847 L 179.029 177.448 Z M 213.047 83.065 C 221.313 83.065 226.815 83.323 229.553 83.84 C 233.272 84.511 236.346 86.19 238.774 88.877 C 241.202 91.563 242.416 94.972 242.416 99.105 C 242.416 102.463 241.551 105.408 239.82 107.939 C 238.089 110.47 235.7 112.33 232.652 113.519 C 229.605 114.707 223.561 115.301 214.52 115.301 L 201.966 115.301 L 201.966 83.065 Z" style=""/>
      <path class="cls-1" d="M283.17,242.72l66.69-121.36L283.17,0h16.4c9.29,0,20.23,6.56,24.6,14.76l58.49,106.6L324.17,228c-4.37,8.2-15.31,14.76-24.6,14.76Z" style=""/>
      <text style="fill: rgb(255, 255, 255); font-family: Arial, sans-serif; font-size: 74.6px; font-style: italic; white-space: pre;" x="439.35" y="204.442">Northern Center for Biotechnology Information</text>
    </g>
  </g>
  <text style="fill: rgb(255, 255, 255); font-family: Arial, sans-serif; font-size: 109.5px; font-weight: 700; white-space: pre;" x="409.486" y="105.404">North Pole Library of Medicine</text>
</svg>